<svg width="390" height="390" viewBox="0 0 390 390" fill="none" xmlns="http://www.w3.org/2000/svg">
<path d="M12 324.908C90.6751 405.554 219.831 407.153 300.477 328.477C381.124 249.802 382.722 120.647 304.047 40L12 324.908Z" fill="#F5B435"/>
<g clip-path="url(#clip0)">
<path d="M360.286 97.0577C342.421 50.6395 309.288 17.5223 296.814 5.05524L296.303 4.54336C294.243 2.48461 290.904 2.48461 288.844 4.54336L207.112 86.2774C205.053 88.3376 205.053 91.676 207.112 93.7362C209.172 95.7949 212.511 95.7949 214.57 93.7362L268.277 40.0287C302.359 75.0225 313.503 99.7584 320.386 121.289C322.954 129.326 324.703 137.446 325.583 145.424C325.88 148.124 328.164 150.121 330.817 150.121C331.011 150.121 331.206 150.11 331.402 150.089C334.296 149.77 336.385 147.165 336.066 144.269C335.11 135.594 333.214 126.782 330.432 118.077C323.496 96.3799 311.529 69.3335 275.735 32.5699L292.556 15.7484C373.008 98.0745 383.272 183.198 322.166 262.14C320.384 264.443 320.805 267.756 323.108 269.539C324.069 270.282 325.205 270.642 326.333 270.642C327.908 270.642 329.467 269.939 330.506 268.596C353.555 238.821 367.148 207.73 370.912 176.188C374.025 150.09 370.45 123.466 360.286 97.0577V97.0577Z" fill="black"/>
<path d="M313.666 280.612C311.532 278.63 308.195 278.752 306.213 280.886C303.64 283.655 300.943 286.451 298.194 289.199C241.489 345.906 181.394 364.638 119.582 344.878C73.7864 330.238 40.0118 298.694 24.7357 283.573L41.5685 266.739C60.2288 284.917 77.8266 298.419 95.2479 307.935C96.0509 308.374 96.9171 308.581 97.7707 308.581C99.6368 308.581 101.446 307.588 102.404 305.835C103.8 303.279 102.859 300.075 100.303 298.679C83.7637 289.644 66.952 276.731 49.0273 259.281L195.73 112.576C197.79 110.516 197.79 107.178 195.73 105.118C193.671 103.059 190.331 103.059 188.272 105.118L13.5448 279.848C12.5555 280.838 12 282.179 12 283.578C12 284.976 12.5555 286.318 13.5448 287.307L14.0566 287.819C27.8745 301.645 64.5797 338.367 116.371 354.925C133.207 360.306 150.071 363 166.813 363C179.42 363 191.959 361.472 204.362 358.413C239.181 349.828 273.26 329.05 305.653 296.657C308.491 293.818 311.279 290.927 313.939 288.064C315.922 285.931 315.799 282.594 313.666 280.612V280.612Z" fill="black"/>
<path d="M121.215 319.47C123.111 320.138 125.083 320.799 127.076 321.436C140.396 325.694 153.692 327.824 166.848 327.824C176.642 327.824 186.358 326.643 195.945 324.279C224.451 317.25 252.998 299.593 280.793 271.797C308.589 244.001 326.246 215.454 333.275 186.947C334.471 182.097 335.375 177.144 335.963 172.227C336.308 169.335 334.244 166.711 331.352 166.365C328.475 166.019 325.836 168.083 325.49 170.976C324.953 175.465 324.126 179.99 323.034 184.422C316.472 211.036 299.751 237.924 273.335 264.339C246.92 290.755 220.032 307.476 193.419 314.039C172.877 319.107 151.636 318.214 130.287 311.391C128.39 310.785 126.516 310.155 124.717 309.522C121.969 308.556 118.958 309.999 117.991 312.746C117.025 315.493 118.468 318.503 121.215 319.47V319.47Z" fill="black"/>
<path d="M227.078 213.542C224.719 213.854 222.86 215.707 222.542 218.066C222.239 220.313 219.866 240.312 229.827 250.273C233.886 254.331 239.217 256.36 244.548 256.36C249.88 256.36 255.212 254.331 259.27 250.272C267.387 242.155 267.387 228.946 259.27 220.829C249.362 210.922 229.329 213.246 227.078 213.542V213.542ZM251.812 242.814C247.807 246.821 241.289 246.819 237.284 242.814C233.18 238.71 232.512 229.631 232.686 223.7C238.636 223.534 247.732 224.208 251.811 228.288C255.817 232.292 255.817 238.809 251.812 242.814Z" fill="black"/>
<path d="M173.587 252.53C171.228 252.841 169.369 254.695 169.051 257.053C169.025 257.244 168.423 261.806 168.795 267.336C169.336 275.365 171.599 281.426 175.521 285.348C179.153 288.98 183.923 290.795 188.694 290.795C193.465 290.795 198.235 288.98 201.868 285.348C209.131 278.084 209.131 266.265 201.868 259.001C193.104 250.238 175.56 252.27 173.587 252.53V252.53ZM194.409 277.89C191.258 281.042 186.13 281.042 182.978 277.891C179.775 274.688 179.145 267.654 179.226 262.708C184.415 262.628 191.355 263.406 194.409 266.46C197.56 269.611 197.56 274.739 194.409 277.89V277.89Z" fill="black"/>
<path d="M294.344 166.522C285.58 157.759 268.035 159.791 266.064 160.052C263.705 160.364 261.847 162.217 261.529 164.575C261.503 164.767 260.901 169.328 261.273 174.858C261.814 182.888 264.076 188.948 267.999 192.87C271.631 196.501 276.4 198.317 281.172 198.317C285.942 198.317 290.715 196.501 294.346 192.87C297.865 189.351 299.802 184.672 299.802 179.696C299.801 174.719 297.863 170.041 294.344 166.522V166.522ZM286.887 185.411C283.736 188.562 278.609 188.564 275.456 185.411C272.255 182.21 271.623 175.185 271.704 170.238C276.66 170.174 283.706 170.8 286.887 173.98C290.038 177.132 290.038 182.26 286.887 185.411Z" fill="black"/>
<path d="M154.45 182.182C152.091 182.493 150.233 184.346 149.915 186.705C149.889 186.896 149.287 191.457 149.659 196.987C150.199 205.017 152.462 211.077 156.385 215C160.016 218.632 164.787 220.447 169.558 220.447C174.328 220.447 179.099 218.632 182.731 215C189.995 207.736 189.995 195.917 182.731 188.652C173.966 179.889 156.423 181.921 154.45 182.182V182.182ZM175.272 207.541C172.121 210.693 166.993 210.693 163.841 207.542C160.641 204.341 160.009 197.314 160.089 192.368C165.051 192.276 172.091 192.93 175.272 196.11C178.423 199.262 178.423 204.39 175.272 207.541V207.541Z" fill="black"/>
<path d="M112.841 233.05C110.482 233.361 108.623 235.215 108.306 237.573C108.003 239.815 105.637 259.757 115.571 269.691C119.62 273.74 124.939 275.765 130.257 275.765C135.576 275.765 140.895 273.74 144.943 269.691C153.041 261.592 153.041 248.416 144.943 240.317C135.062 230.437 115.086 232.753 112.841 233.05V233.05ZM137.485 262.232C133.499 266.219 127.014 266.219 123.028 262.232C118.945 258.149 118.278 249.118 118.45 243.208C124.383 243.045 133.427 243.717 137.486 247.776C141.471 251.761 141.471 258.247 137.485 262.232Z" fill="black"/>
<path d="M250.408 103.127C248.049 103.439 246.191 105.292 245.873 107.65C245.847 107.842 245.244 112.402 245.616 117.933C246.157 125.963 248.419 132.023 252.341 135.945C255.86 139.463 260.539 141.402 265.515 141.402C270.491 141.402 275.17 139.463 278.688 135.945C282.207 132.426 284.145 127.747 284.145 122.772C284.145 117.796 282.207 113.117 278.688 109.599C269.925 100.834 252.38 102.867 250.408 103.127V103.127ZM271.23 128.487C269.703 130.013 267.673 130.854 265.515 130.854C263.356 130.854 261.326 130.013 259.8 128.486C256.599 125.285 255.967 118.26 256.048 113.313C261.003 113.237 268.049 113.875 271.23 117.055V117.056C274.381 120.208 274.381 125.335 271.23 128.487Z" fill="black"/>
<path d="M195.717 140.914C193.358 141.226 191.499 143.079 191.182 145.438C190.842 147.956 188.181 170.364 199.258 181.442C203.73 185.915 209.606 188.151 215.482 188.151C221.358 188.151 227.234 185.914 231.706 181.442C240.652 172.495 240.652 157.939 231.706 148.993C220.689 137.974 198.24 140.582 195.717 140.914V140.914ZM224.247 173.982C219.413 178.817 211.549 178.816 206.715 173.983C201.66 168.928 200.985 157.953 201.288 151.033C208.224 150.743 219.223 151.425 224.247 156.449V156.449C229.081 161.283 229.081 169.149 224.247 173.982Z" fill="black"/>
<path d="M85.582 262.509C88.4949 262.509 90.8562 260.148 90.8562 257.235C90.8562 254.322 88.4949 251.961 85.582 251.961C82.6692 251.961 80.3079 254.322 80.3079 257.235C80.3079 260.148 82.6692 262.509 85.582 262.509Z" fill="black"/>
<path d="M196.072 236.866C198.985 236.866 201.347 234.504 201.347 231.592C201.347 228.679 198.985 226.317 196.072 226.317C193.16 226.317 190.798 228.679 190.798 231.592C190.798 234.504 193.16 236.866 196.072 236.866Z" fill="black"/>
<path d="M264.818 80.5709C267.731 80.5709 270.092 78.2095 270.092 75.2967C270.092 72.3839 267.731 70.0226 264.818 70.0226C261.905 70.0226 259.544 72.3839 259.544 75.2967C259.544 78.2095 261.905 80.5709 264.818 80.5709Z" fill="black"/>
</g>
<defs>
<clipPath id="clip0">
<rect width="360" height="360" fill="white" transform="translate(12 3)"/>
</clipPath>
</defs>
</svg>
